<svg width="48" height="48" viewBox="0 0 48 48" fill="none" xmlns="http://www.w3.org/2000/svg">
<path d="M9.17618 7.58824C9.17618 6.71108 8.46517 6 7.58809 6C6.71101 6 6 6.71108 6 7.58824V38.2941C6 40.3408 7.65903 42 9.70555 42H40.4087C41.2857 42 41.9967 41.2889 41.9967 40.4118C41.9967 39.5346 41.2857 38.8235 40.4087 38.8235H9.70555C9.41319 38.8235 9.17618 38.5865 9.17618 38.2941V7.58824ZM28.2333 12.8824C28.2333 12.0052 28.9443 11.2941 29.8214 11.2941H40.4118C41.2888 11.2941 41.9998 12.0052 41.9999 12.8823L42 23.4811C42 24.3583 41.289 25.0694 40.4119 25.0694C39.5349 25.0694 38.8238 24.3583 38.8238 23.4812L38.8237 16.7135L27.7681 27.7701C27.148 28.3904 26.1424 28.3904 25.5222 27.7701L21.3516 23.599L14.534 30.4172C13.9139 31.0374 12.9083 31.0374 12.2881 30.4172C11.668 29.7969 11.668 28.7913 12.2881 28.1711L20.2286 20.2299C20.8488 19.6096 21.8543 19.6096 22.4745 20.2299L26.6452 24.401L36.5747 14.4706H29.8214C28.9443 14.4706 28.2333 13.7595 28.2333 12.8824Z" fill="#1976D2"/>
</svg>
