<svg width="48" height="48" viewBox="0 0 48 48" fill="none" xmlns="http://www.w3.org/2000/svg">
<path d="M11 14.2857C11 13.2006 11.4813 12.2533 12.1817 11.489C12.8765 10.7309 13.8283 10.1017 14.9176 9.59896C17.0988 8.59228 20.0318 8 23.2105 8C26.3893 8 29.3223 8.59228 31.5035 9.59896C32.5928 10.1017 33.5446 10.7309 34.2393 11.489C34.9398 12.2533 35.4211 13.2006 35.4211 14.2857V24.1184C34.7398 23.5392 33.9684 23.0685 33.1316 22.732V18.0452C32.6417 18.3916 32.0927 18.7005 31.5035 18.9725C29.3223 19.9791 26.3893 20.5714 23.2105 20.5714C20.0318 20.5714 17.0988 19.9791 14.9176 18.9725C14.3283 18.7005 13.7793 18.3916 13.2895 18.0452V33.1429C13.2895 33.468 13.4275 33.8643 13.847 34.322C14.2722 34.7859 14.9409 35.2572 15.8541 35.6787C17.6779 36.5204 20.2778 37.0714 23.2105 37.0714C23.5763 37.0714 23.9368 37.0629 24.2914 37.0462C25.2114 37.9481 26.3301 38.6372 27.5728 39.0369C26.2132 39.2914 24.7403 39.4286 23.2105 39.4286C20.0318 39.4286 17.0988 38.8363 14.9176 37.8296C13.8283 37.3269 12.8765 36.6977 12.1817 35.9396C11.4813 35.1753 11 34.228 11 33.1429V14.2857ZM13.2895 14.2857C13.2895 14.6109 13.4275 15.0071 13.847 15.4648C14.2722 15.9288 14.9409 16.4001 15.8541 16.8216C17.6779 17.6633 20.2778 18.2143 23.2105 18.2143C26.1433 18.2143 28.7431 17.6633 30.567 16.8216C31.4802 16.4001 32.1489 15.9288 32.5741 15.4648C32.9935 15.0071 33.1316 14.6109 33.1316 14.2857C33.1316 13.9606 32.9935 13.5643 32.5741 13.1066C32.1489 12.6426 31.4802 12.1713 30.567 11.7499C28.7431 10.9081 26.1433 10.3571 23.2105 10.3571C20.2778 10.3571 17.6779 10.9081 15.8541 11.7499C14.9409 12.1713 14.2722 12.6426 13.847 13.1066C13.4275 13.5643 13.2895 13.9606 13.2895 14.2857ZM30.0789 37.8571C31.5623 37.8571 32.9359 37.373 34.0587 36.5498L38.0458 40.6548C38.4929 41.1151 39.2177 41.1151 39.6647 40.6548C40.1118 40.1945 40.1118 39.4483 39.6647 38.9881L35.6776 34.8831C36.4771 33.7271 36.9474 32.3129 36.9474 30.7857C36.9474 26.8803 33.8723 23.7143 30.0789 23.7143C26.2856 23.7143 23.2105 26.8803 23.2105 30.7857C23.2105 34.6912 26.2856 37.8571 30.0789 37.8571ZM30.0789 35.5C27.5501 35.5 25.5 33.3893 25.5 30.7857C25.5 28.1821 27.5501 26.0714 30.0789 26.0714C32.6078 26.0714 34.6579 28.1821 34.6579 30.7857C34.6579 33.3893 32.6078 35.5 30.0789 35.5Z" fill="#1976D2"/>
</svg>
