<svg width="48" height="48" viewBox="0 0 48 48" fill="none" xmlns="http://www.w3.org/2000/svg">
<path d="M19.8 18C19.8 15.7909 21.6804 14 24 14C26.3196 14 28.2 15.7909 28.2 18V30C28.2 32.2091 26.3196 34 24 34C21.6804 34 19.8 32.2091 19.8 30V18ZM24 17C23.4201 17 22.95 17.4477 22.95 18V30C22.95 30.5523 23.4201 31 24 31C24.5799 31 25.05 30.5523 25.05 30V18C25.05 17.4477 24.5799 17 24 17ZM9.3 28C9.3 25.7909 11.1804 24 13.5 24C15.8196 24 17.7 25.7909 17.7 28V30C17.7 32.2091 15.8196 34 13.5 34C11.1804 34 9.3 32.2091 9.3 30V28ZM14.55 28C14.55 27.4477 14.0799 27 13.5 27C12.9201 27 12.45 27.4477 12.45 28V30C12.45 30.5523 12.9201 31 13.5 31C14.0799 31 14.55 30.5523 14.55 30V28ZM34.5 20C32.1804 20 30.3 21.7909 30.3 24V30C30.3 32.2091 32.1804 34 34.5 34C36.8196 34 38.7 32.2091 38.7 30V24C38.7 21.7909 36.8196 20 34.5 20ZM35.55 24V30C35.55 30.5523 35.0799 31 34.5 31C33.9201 31 33.45 30.5523 33.45 30V24C33.45 23.4477 33.9201 23 34.5 23C35.0799 23 35.55 23.4477 35.55 24ZM3 13.5C3 10.4624 5.58556 8 8.775 8H39.225C42.4144 8 45 10.4624 45 13.5V34.5C45 37.5376 42.4144 40 39.225 40H8.775C5.58556 40 3 37.5376 3 34.5V13.5ZM8.775 11C7.32525 11 6.15 12.1193 6.15 13.5V34.5C6.15 35.8807 7.32525 37 8.775 37H39.225C40.6747 37 41.85 35.8807 41.85 34.5V13.5C41.85 12.1193 40.6747 11 39.225 11H8.775Z" fill="#1976D2"/>
</svg>
