<svg width="48" height="48" viewBox="0 0 48 48" fill="none" xmlns="http://www.w3.org/2000/svg">
<path d="M22.9516 21.7622C26.0142 24.7969 26.3346 29.5199 23.9128 32.9078L23.6615 33.242L31.1603 40.6743L31.2934 40.8271C31.6928 41.3605 31.6484 42.1173 31.1603 42.601C30.6722 43.0846 29.9084 43.1286 29.3702 42.7329L29.216 42.601L21.6477 35.1016C18.2417 37.3771 13.5787 37.0218 10.5653 34.0358C7.1449 30.6466 7.1449 25.1515 10.5653 21.7622C13.9857 18.373 19.5312 18.373 22.9516 21.7622ZM26.0101 6C27.0708 6 28.0881 6.41738 28.8383 7.16038L33.8381 12.112L38.8303 17.0663C39.5793 17.8096 40 18.817 40 19.8674V37.2738C40 39.4632 38.2088 41.2381 35.9993 41.2381L33.3156 41.2391C33.249 40.723 33.0519 40.2186 32.7214 39.7773L32.5062 39.523L31.5696 38.5935L35.9993 38.5952C36.7358 38.5952 37.3329 38.0036 37.3329 37.2738L37.3314 20.1005L29.7816 20.1021C27.6642 20.1021 25.9309 18.472 25.7902 16.4092L25.7809 16.1378V8.64286H15.5569C14.8204 8.64286 14.2233 9.23448 14.2233 9.96429L14.2227 17.754C13.3001 17.9709 12.4013 18.3125 11.5536 18.7789L11.5562 9.96429C11.5562 7.77487 13.3474 6 15.5569 6H26.0101ZM12.5096 23.6889C10.1631 26.0141 10.1631 29.784 12.5096 32.1092C14.8562 34.4343 18.6607 34.4343 21.0073 32.1092C23.3538 29.784 23.3538 26.0141 21.0073 23.6889C18.6607 21.3637 14.8562 21.3637 12.5096 23.6889ZM28.4481 10.5105V16.1378C28.4481 16.8068 28.9498 17.3597 29.6007 17.4472L29.7816 17.4592L35.4555 17.4577L28.4481 10.5105Z" fill="#1976D2"/>
</svg>
