<svg width="29" height="29" viewBox="0 0 29 29" fill="none" xmlns="http://www.w3.org/2000/svg">
<g clip-path="url(#clip0_6232_6302)">
<circle cx="14.5771" cy="14.7563" r="14" fill="white"/>
<path d="M20.3066 14.1616H23.041V15.3784H20.3066V18.1401H19.0898V15.3784H16.3623V14.1616H19.0898V11.3726H20.3066V14.1616Z" fill="#333D47"/>
<path d="M13.6191 19.7739L12.6416 16.9985H8.82031L7.84277 19.7739H6.11328L9.83203 9.73877H11.6504L15.3623 19.7739H13.6191ZM12.2178 15.5903L11.2676 12.856C11.2311 12.7375 11.1787 12.5711 11.1104 12.3569C11.042 12.1382 10.9736 11.9172 10.9053 11.6938C10.8369 11.466 10.7799 11.2746 10.7344 11.1196C10.6888 11.3065 10.6318 11.5161 10.5635 11.7485C10.4997 11.9764 10.4359 12.1906 10.3721 12.3911C10.3128 12.5916 10.2673 12.7466 10.2354 12.856L9.27832 15.5903H12.2178Z" fill="#333D47"/>
</g>
<defs>
<clipPath id="clip0_6232_6302">
<rect width="29" height="29" fill="white"/>
</clipPath>
</defs>
</svg>
