<svg width="29" height="29" viewBox="0 0 29 29" fill="none" xmlns="http://www.w3.org/2000/svg">
<g clip-path="url(#clip0_6232_6294)">
<circle cx="14.5771" cy="14.7563" r="14" fill="white"/>
<path d="M15.375 18.3403L14.6768 16.3579H11.9473L11.249 18.3403H10.0137L12.6699 11.1724H13.9688L16.6201 18.3403H15.375ZM14.374 15.3521L13.6953 13.3989C13.6693 13.3143 13.6318 13.1955 13.583 13.0425C13.5342 12.8862 13.4854 12.7284 13.4365 12.5688C13.3877 12.4061 13.347 12.2694 13.3145 12.1587C13.2819 12.2922 13.2412 12.4419 13.1924 12.6079C13.1468 12.7707 13.1012 12.9237 13.0557 13.0669C13.0133 13.2101 12.9808 13.3208 12.958 13.3989L12.2744 15.3521H14.374Z" fill="#333D47"/>
<path d="M16.6201 15.2422V14.2705H19.1396V15.2422H16.6201Z" fill="#333D47"/>
</g>
<defs>
<clipPath id="clip0_6232_6294">
<rect width="29" height="29" fill="white"/>
</clipPath>
</defs>
</svg>
