<svg width="29" height="29" viewBox="0 0 29 29" fill="none" xmlns="http://www.w3.org/2000/svg">
<g clip-path="url(#clip0_6232_6295)">
<circle cx="14.5771" cy="14.7563" r="14" fill="white"/>
<path d="M17.0469 19.0571L16.209 16.6782H12.9336L12.0957 19.0571H10.6133L13.8008 10.4556H15.3594L18.541 19.0571H17.0469ZM15.8457 15.4712L15.0312 13.1274C15 13.0259 14.9551 12.8833 14.8965 12.6997C14.8379 12.5122 14.7793 12.3228 14.7207 12.1313C14.6621 11.936 14.6133 11.772 14.5742 11.6392C14.5352 11.7993 14.4863 11.979 14.4277 12.1782C14.373 12.3735 14.3184 12.5571 14.2637 12.729C14.2129 12.9009 14.1738 13.0337 14.1465 13.1274L13.3262 15.4712H15.8457Z" fill="#333D47"/>
</g>
<defs>
<clipPath id="clip0_6232_6295">
<rect width="29" height="29" fill="white"/>
</clipPath>
</defs>
</svg>
