<svg width="50" height="33" viewBox="0 0 50 33" fill="none" xmlns="http://www.w3.org/2000/svg">
<g clip-path="url(#clip0_5655_5566)">
<path d="M14.2378 2.55697C14.2544 2.91302 14.2823 3.26179 14.2854 3.61018C14.2939 4.65188 14.0484 5.64945 13.7083 6.62439C13.4434 7.3837 13.1266 8.12536 12.8644 8.88544C12.5402 9.82508 12.3547 10.7973 12.2687 11.7868C12.2366 12.1552 12.2087 12.5235 12.1761 12.9237H13.273C12.9403 13.2529 12.8911 13.642 12.7768 14.003C12.7226 14.1749 12.6432 14.2566 12.4492 14.2363C12.2005 14.2102 11.9414 14.2436 11.6998 14.1925C11.1873 14.084 10.8616 13.6723 10.8713 13.1547C10.9096 11.158 11.2478 9.22193 12.0324 7.36759C12.5115 6.23534 12.8888 5.06702 12.9759 3.82888C13.017 3.24299 12.9461 2.66785 12.7559 2.10959C12.5603 1.53598 12.8814 1.13772 13.4941 1.17072C14.8396 1.24323 16.1851 1.32688 17.5318 1.35834C18.1465 1.37254 18.7685 1.30577 19.3785 1.21791C19.8986 1.14271 20.4025 0.965832 20.9203 0.866458C22.5927 0.54685 24.2818 0.453998 25.9824 0.519992C27.5863 0.582532 29.1568 0.827706 30.7138 1.22482C31.3149 1.37791 31.9698 1.37484 32.598 1.36026C33.8413 1.33148 35.0834 1.24515 36.3258 1.18338C36.4738 1.17609 36.6229 1.16189 36.7701 1.17302C37.1651 1.20218 37.4564 1.60083 37.3278 1.97031C36.925 3.1252 37.0067 4.28047 37.3514 5.41847C37.6303 6.33931 37.9804 7.23943 38.3116 8.14416C38.6714 9.12677 38.9045 10.1389 39.0254 11.1741C39.0989 11.8014 39.1408 12.4334 39.1721 13.0645C39.207 13.762 38.7186 14.2417 38.0149 14.2332C37.6361 14.2286 37.3944 14.0484 37.2898 13.6926C37.2499 13.5583 37.2097 13.4217 37.1489 13.2963C37.0915 13.1773 37.0067 13.0718 36.9188 12.9367H37.8576C37.8445 12.6797 37.8383 12.4464 37.8201 12.2143C37.7008 10.6891 37.375 9.2154 36.7712 7.79923C36.2941 6.68079 35.9106 5.52629 35.7995 4.30771C35.7557 3.82734 35.7925 3.33968 35.7956 2.85547C35.7964 2.7607 35.8123 2.66632 35.8247 2.53625C35.5435 2.57615 35.2782 2.60569 35.0156 2.65174C33.1794 2.97441 31.4082 3.49852 29.7397 4.33687C28.5708 4.92429 27.496 5.64523 26.594 6.59408C26.2729 6.93172 26.0018 7.31617 25.7047 7.67645C25.6312 7.76585 25.6211 7.84604 25.6707 7.95424C26.0936 8.87853 26.2756 9.84925 26.2125 10.8626C26.1567 11.7615 25.9019 12.6079 25.4863 13.4041C25.2818 13.7954 24.7504 13.7897 24.5506 13.3941C24.0285 12.3601 23.7531 11.2696 23.8282 10.1032C23.877 9.34854 24.0688 8.63297 24.372 7.94157C24.4018 7.87366 24.3802 7.75357 24.3364 7.68796C23.7825 6.85997 23.0811 6.16973 22.2891 5.56581C20.9498 4.54483 19.4405 3.85573 17.8436 3.34083C16.7018 2.97249 15.5372 2.69931 14.3435 2.55735C14.3071 2.55313 14.2695 2.55697 14.237 2.55697H14.2378ZM25.02 11.6464C25.2311 10.8641 25.2284 10.0825 25.0196 9.30135C24.807 10.0837 24.8062 10.8652 25.02 11.6464Z" fill="#24245F"/>
<path d="M25.0579 24.7484C23.4467 24.7078 21.863 24.5293 20.3246 24.0505C18.0178 23.3322 16.1227 22.0465 14.7718 20.0322C13.9592 18.8205 13.4023 17.4937 13.1548 16.0641C12.9162 14.6863 13.3612 13.518 14.4801 12.634C14.6296 12.5158 14.7881 12.3585 15.0173 12.4667C15.2482 12.5757 15.2582 12.7929 15.285 13.0039C15.3024 13.1393 15.2501 13.2203 15.1393 13.3047C14.4403 13.8388 14.5417 14.9211 15.3229 15.3294C15.5387 15.4422 15.5499 15.5631 15.3636 15.7311C14.7218 16.3112 14.8829 17.4673 15.7412 17.7681C15.8152 17.7942 15.8981 17.8805 15.9202 17.9557C16.4446 19.7406 17.4918 21.1529 19.0143 22.2249C20.1875 23.051 21.4923 23.5801 22.901 23.8567C24.8154 24.2328 26.7031 24.1192 28.5397 23.4623C30.7079 22.6869 32.4341 21.3632 33.536 19.3224C33.7746 18.8804 33.9341 18.3966 34.1371 17.935C34.1665 17.8686 34.2258 17.793 34.2901 17.7669C35.086 17.4446 35.3087 16.4079 34.7095 15.7917C34.4984 15.5746 34.5155 15.4449 34.775 15.2922C35.4675 14.8843 35.5415 13.848 34.9152 13.3362C34.694 13.1554 34.6991 12.6332 34.9264 12.4556C35.0705 12.3432 35.2208 12.3539 35.3761 12.4414C36.1565 12.8803 36.6267 13.5445 36.8296 14.4024C37.0016 15.1303 36.9272 15.8477 36.7344 16.5602C36.3684 17.9146 35.8296 19.1919 35.0151 20.3464C34.0755 21.6778 32.8636 22.6934 31.3954 23.4124C30.1587 24.0183 28.848 24.3839 27.4836 24.5481C26.6784 24.6448 25.8662 24.684 25.0575 24.7492L25.0579 24.7484Z" fill="#24245F"/>
<path d="M25.7193 15.792C24.1278 15.7183 22.5221 15.6753 20.9221 15.5595C19.7284 15.4731 18.5413 15.2943 17.3519 15.152C17.0378 15.1144 16.8314 14.8166 16.8802 14.4951C16.9286 14.1786 17.1931 13.9925 17.5305 14.0435C18.0464 14.1214 18.5599 14.2196 19.0778 14.2791C19.9418 14.3785 20.8067 14.4993 21.6743 14.5293C23.3172 14.5861 24.9633 14.629 26.6062 14.5937C27.9184 14.5657 29.2318 14.4449 30.5381 14.3063C31.7156 14.1816 32.8844 13.9787 34.056 13.8053C34.3636 13.76 34.6184 13.9119 34.6835 14.1989C34.7567 14.5216 34.5983 14.8247 34.2973 14.8922C33.9708 14.9659 33.6397 15.0215 33.3089 15.0718C32.4557 15.2011 31.6025 15.335 30.7465 15.4447C30.0889 15.5291 29.4277 15.5986 28.7662 15.6412C27.7565 15.706 26.7449 15.7421 25.7197 15.7912L25.7193 15.792Z" fill="#4870AA"/>
<path d="M24.9687 18.231C24.0419 18.1972 23.1151 18.1731 22.189 18.1266C21.5023 18.0925 20.8149 18.048 20.1317 17.9747C19.4628 17.903 18.7986 17.7879 18.132 17.6935C17.9155 17.6628 17.6974 17.6421 17.4817 17.6091C17.2009 17.5657 17.0046 17.263 17.0534 16.9599C17.1037 16.6483 17.3276 16.4707 17.6359 16.5117C18.4662 16.6222 19.2931 16.7638 20.1262 16.8451C21.1572 16.9453 22.1925 17.0393 23.2274 17.0596C24.6496 17.0876 26.0741 17.0631 27.4963 17.0236C28.2841 17.0017 29.0715 16.9196 29.8561 16.8356C30.733 16.7416 31.6068 16.6195 32.4805 16.4991C32.9329 16.4365 33.381 16.3429 33.8334 16.2796C34.1564 16.2343 34.371 16.4074 34.4147 16.7174C34.4604 17.0389 34.285 17.3132 33.9844 17.3677C33.522 17.4517 33.0588 17.5312 32.594 17.601C31.9077 17.7046 31.2218 17.8143 30.5324 17.8918C29.8426 17.9697 29.1489 18.0184 28.4564 18.0668C27.7047 18.119 26.9525 18.1642 26.1996 18.1969C25.7906 18.2145 25.38 18.1999 24.9703 18.1999C24.9703 18.2103 24.9695 18.221 24.9691 18.2314L24.9687 18.231Z" fill="#B4CFBF"/>
<path d="M32.2464 26.235C32.4423 26.3036 32.6197 26.36 32.7925 26.4272C33.5074 26.7053 33.76 27.1631 33.7084 27.9573C33.6496 28.8593 33.2812 29.6578 32.7301 30.3749C32.6031 30.5399 32.4478 30.6346 32.2351 30.6174C31.8374 30.5855 31.4396 30.5545 31.0426 30.5165C30.8768 30.5007 30.8137 30.4071 30.7638 30.236C30.6588 29.8765 30.4985 29.5323 30.3536 29.1847C29.8904 28.0762 29.4241 26.9693 28.9589 25.8616C28.8334 25.5627 28.8357 25.5037 29.1506 25.4177C29.4729 25.3298 29.5848 25.0371 29.8141 24.8648C30.1259 24.6308 30.4283 24.3825 30.7533 24.1673C31.0372 23.9789 31.3292 23.9969 31.6151 24.2087C31.7398 24.3012 31.8986 24.361 32.0508 24.4017C32.3482 24.4811 32.4853 24.6768 32.5264 24.9615C32.5853 25.3705 32.4605 25.7438 32.2998 26.1103C32.2847 26.1448 32.27 26.1797 32.2467 26.2334L32.2464 26.235ZM32.4044 27.1358C31.9981 27.4209 31.6561 27.7405 31.3966 28.1426C31.3784 28.1706 31.3703 28.2197 31.3823 28.2493C31.548 28.6533 31.7185 29.0554 31.8897 29.4633C32.4152 29.0796 32.7169 27.7401 32.4048 27.1358H32.4044ZM31.3505 25.1672C31.2626 25.1871 31.2274 25.186 31.2033 25.2017C30.8896 25.4039 30.6545 25.6763 30.4861 26.0051C30.471 26.0347 30.4737 26.0826 30.4864 26.1149C30.5701 26.3205 30.6588 26.5239 30.7661 26.7756C31.0322 26.2434 31.2909 25.76 31.3505 25.1672Z" fill="#24245F"/>
<path d="M29.713 9.42003C29.5612 9.49178 29.4137 9.56161 29.2529 9.63719C29.9729 7.5749 31.8889 6.55775 33.9928 7.31169C33.7344 7.44214 33.5001 7.56032 33.2565 7.68348C34.1454 8.51262 34.4118 9.46338 33.8088 10.535C33.3417 11.3645 32.4114 11.7513 31.5206 11.5725C30.5004 11.3676 29.9323 10.6958 29.7134 9.42003H29.713Z" fill="#24245F"/>
<path d="M16.7539 7.68466C16.5091 7.56342 16.2744 7.44716 16.0327 7.32707C16.5242 7.04967 17.7593 6.92344 18.661 7.30252C19.7183 7.74682 20.3132 8.59323 20.7582 9.57814C20.7482 9.59387 20.7381 9.60922 20.728 9.62495C20.6572 9.59349 20.5863 9.56318 20.5162 9.53018C20.4422 9.49565 20.369 9.45881 20.2853 9.41814C20.1459 10.6943 19.4817 11.4904 18.1815 11.5978C17.2767 11.6727 16.5486 11.2541 16.1392 10.4445C15.6063 9.39052 15.8821 8.46699 16.7539 7.68466Z" fill="#24245F"/>
<path d="M19.1002 25.3884C18.747 25.4709 18.4933 25.6313 18.2772 25.845C17.4538 26.6576 16.9914 27.6498 16.8082 28.7779C16.8012 28.8216 16.8031 28.8673 16.8047 28.9118C16.8136 29.1493 16.8651 29.1907 17.0862 29.1155C17.4887 28.9789 17.8969 28.8519 18.1692 28.4878C18.2582 28.3689 18.3895 28.37 18.4879 28.4778C18.7114 28.7238 18.9279 28.9766 19.1382 29.2337C19.218 29.3315 19.1994 29.4351 19.0929 29.5176C18.5859 29.9105 18.0452 30.2382 17.405 30.3713C17.1552 30.4231 16.9476 30.3648 16.7528 30.181C16.3577 29.8077 15.9696 29.4374 15.8395 28.8841C15.7214 28.3823 15.7377 27.8793 15.8674 27.3855C16.1683 26.2432 16.7233 25.2553 17.699 24.537C17.9771 24.3321 18.2807 24.1825 18.6351 24.1629C18.9248 24.1472 19.1982 24.2105 19.3899 24.4323C19.6359 24.7166 19.8721 25.0132 20.077 25.327C20.2316 25.5634 20.2587 25.845 20.177 26.1232C20.0801 26.4539 19.9891 26.7869 19.869 27.1096C19.8129 27.2604 19.7041 27.3962 19.6014 27.5251C19.4883 27.6671 19.3473 27.6863 19.2013 27.5585C18.9744 27.3602 18.7362 27.1733 18.5216 26.9623C18.3392 26.7827 18.3721 26.7236 18.5491 26.5395C18.8481 26.2287 19.0015 25.8415 19.0995 25.3876L19.1002 25.3884Z" fill="#24245F"/>
<path d="M22.7762 29.3742C22.8219 29.2058 22.8463 29.0903 22.8851 28.9801C22.9579 28.7737 23.1597 28.6801 23.4056 28.7308C23.6186 28.7745 23.7751 28.9314 23.7263 29.1375C23.6481 29.4693 23.5567 29.8108 23.3928 30.1059C23.2418 30.3783 23.2139 30.6027 23.3715 30.8617C23.4075 30.9208 23.4246 30.9918 23.4502 31.057C23.5694 31.3597 23.4625 31.5769 23.1341 31.697C22.8587 31.7975 22.6322 31.6866 22.526 31.4012C22.5001 31.331 22.4683 31.2631 22.4339 31.181C22.3463 31.2293 22.2739 31.2696 22.2015 31.3099C21.4745 31.7158 20.2313 31.4614 20.2247 30.1742C20.22 29.2921 20.4857 28.5443 21.2429 28.0152C21.2863 27.9849 21.3029 27.869 21.284 27.8076C21.1681 27.4278 21.0357 27.0479 21.0992 26.6466C21.1414 26.3788 21.1968 26.1006 21.3149 25.86C21.5473 25.387 22.1078 25.2281 22.7332 25.4119C23.4699 25.6279 23.7553 26.3538 23.3878 27.0729C23.193 27.4539 22.856 27.6914 22.5075 27.9108C22.3572 28.0056 22.3122 28.0915 22.3796 28.2627C22.5167 28.611 22.6322 28.9679 22.7755 29.3746L22.7762 29.3742ZM21.6178 28.9579C21.4063 29.2315 21.2913 29.5303 21.2592 29.9516C21.239 30.2156 21.2382 30.4838 21.2615 30.747C21.2766 30.9166 21.416 31.0041 21.5891 31.0171C21.8599 31.0375 22.0152 30.8495 22.1519 30.6703C22.1988 30.6085 22.1445 30.4658 22.1256 30.3622C22.1132 30.2939 22.0826 30.2287 22.0586 30.163C21.9153 29.7701 21.7712 29.3773 21.6178 28.9579ZM22.1256 27.417C22.5299 27.188 22.7898 26.4524 22.6051 26.0477C22.5698 25.9702 22.4536 25.8735 22.3854 25.8808C22.2987 25.89 22.1817 25.9801 22.148 26.0634C21.9683 26.5069 21.9536 26.9593 22.126 27.4166L22.1256 27.417Z" fill="#24245F"/>
<path d="M27.7241 25.3241C27.7629 25.3241 27.8016 25.3222 27.8399 25.3241C28.2547 25.3463 28.2772 25.4131 28.276 25.8183C28.2749 26.2353 28.3295 26.6562 28.3984 27.0691C28.6002 28.2765 28.8194 29.4813 29.0371 30.6857C29.0569 30.795 29.1297 30.894 29.1533 31.0034C29.1858 31.1557 29.2137 31.3134 29.2091 31.468C29.2052 31.6069 29.089 31.6552 28.9577 31.6449C28.6754 31.623 28.3926 31.6046 28.1118 31.5693C27.8771 31.5401 27.79 31.3993 27.7834 31.1683C27.778 30.9727 27.733 30.777 27.6986 30.5828C27.434 29.0884 27.1684 27.5947 26.9019 26.1007C26.8852 26.007 26.8701 25.9111 26.8368 25.8221C26.7493 25.5865 26.8159 25.4434 27.0711 25.3939C27.2849 25.3525 27.5041 25.3375 27.721 25.311C27.7218 25.3153 27.7222 25.3195 27.723 25.3237L27.7241 25.3241Z" fill="#24245F"/>
<path d="M25.2015 25.5098C25.4525 25.5612 25.7058 25.6034 25.9537 25.6667C26.0942 25.7028 26.1802 25.8117 26.1202 25.9594C25.9428 26.3965 25.9858 26.8511 25.9951 27.3031C26.0179 28.4081 26.0392 29.5131 26.0733 30.6177C26.0819 30.8944 26.1384 31.1691 26.169 31.445C26.1783 31.5271 26.1802 31.6111 26.1752 31.6936C26.1585 31.9564 26.0605 32.0351 25.8003 31.986C25.5977 31.9476 25.3959 31.9042 25.1972 31.8505C24.7999 31.7431 24.7716 31.689 24.7786 31.2961C24.7855 30.9001 24.7762 30.5038 24.7677 30.1078C24.7414 28.8946 24.7135 27.681 24.6814 26.4678C24.6759 26.2652 24.65 26.0627 24.6248 25.8612C24.6054 25.7077 24.6891 25.5823 24.8669 25.5547C24.9738 25.5382 25.0853 25.5516 25.1949 25.5516C25.1972 25.5378 25.1992 25.5236 25.2015 25.5098Z" fill="#24245F"/>
<path d="M18.0138 23.7816H9.00232C9.00155 23.7724 9.00077 23.7636 9 23.7544C9.45082 23.7003 9.90126 23.6389 10.3532 23.5928C11.3021 23.4961 12.2514 23.3998 13.2019 23.3173C14.1973 23.231 15.1957 23.1788 16.1892 23.076C16.6121 23.0323 16.9653 23.1033 17.3015 23.3611C17.5029 23.5153 17.7407 23.6228 18.0142 23.7816H18.0138Z" fill="#24245F"/>
<path d="M32.0679 23.7879C32.4436 23.5534 32.7987 23.3228 33.1647 23.1103C33.2499 23.0608 33.3735 23.0546 33.4769 23.0623C34.4087 23.1287 35.3418 23.1889 36.2717 23.2772C37.824 23.4241 39.374 23.5899 40.9252 23.7483C40.936 23.7495 40.9461 23.7591 40.9995 23.7879H32.0679Z" fill="#24245F"/>
<path d="M15.8458 14.8813C15.5464 14.8797 15.2958 14.6265 15.2974 14.3276C15.2989 14.0322 15.5557 13.7855 15.8597 13.7866C16.1537 13.7878 16.4116 14.0498 16.4055 14.3414C16.3993 14.643 16.1506 14.8828 15.8458 14.8813Z" fill="#4870AA"/>
<path d="M15.6122 16.8027C15.6261 16.4386 15.8295 16.2399 16.1753 16.2525C16.491 16.264 16.6963 16.4946 16.6827 16.8227C16.6707 17.1154 16.4251 17.338 16.1199 17.333C15.8287 17.3284 15.6013 17.0905 15.6122 16.8023V16.8027Z" fill="#B4CFBF"/>
</g>
<defs>
<clipPath id="clip0_5655_5566">
<rect width="32" height="31.5" fill="white" transform="translate(9 0.5)"/>
</clipPath>
</defs>
</svg>
