<svg width="48" height="48" viewBox="0 0 48 48" fill="none" xmlns="http://www.w3.org/2000/svg">
<path d="M11.9259 41.2462C9.75925 41.2458 8.00284 39.4713 8.00227 37.282L8 12.6075C7.99943 10.418 9.75594 8.64261 11.923 8.64261L13.2262 8.6411L13.2272 7.32143C13.2272 6.65244 13.7192 6.09956 14.3576 6.01206L14.535 6C15.1972 6 15.7444 6.49713 15.831 7.14212L15.8429 7.32143L15.8419 8.6411H21.0768L21.0777 7.32143C21.0777 6.65244 21.5697 6.09956 22.2081 6.01206L22.3856 6C23.0477 6 23.5949 6.49713 23.6815 7.14212L23.6934 7.32143L23.6925 8.6411H28.9205L28.9215 7.32143C28.9215 6.65244 29.4135 6.09956 30.0518 6.01206L30.2293 6C30.8914 6 31.4386 6.49713 31.5252 7.14212L31.5372 7.32143L31.5362 8.6411L32.8426 8.64261C35.0091 8.64336 36.7654 10.4177 36.7662 12.607L36.7671 20.2305C35.9903 19.7349 35.103 19.4001 34.151 19.2723L34.1504 12.6076C34.1502 11.8776 33.5644 11.2859 32.8423 11.2856H11.9054C11.1913 11.2953 10.6157 11.8832 10.6157 12.607L10.618 37.2816C10.6182 38.0115 11.2039 38.6033 11.9261 38.6033L23.2895 38.6025C23.6373 39.5561 24.1704 40.4504 24.8643 41.2462H11.9259ZM34.1511 21.0558C35.1734 21.2451 36.0823 21.7619 36.7674 22.4946C37.5789 23.3625 38.0764 24.5333 38.0764 25.8214C38.0764 27.1092 37.5792 28.2796 36.7682 29.1473C36.0832 29.8803 35.1742 30.3974 34.1519 30.587C33.8695 30.6393 33.5784 30.6667 33.281 30.6667C30.7794 30.6667 28.7253 28.7314 28.505 26.2619C28.4921 26.1168 28.4855 25.9699 28.4855 25.8214C28.4855 25.0284 28.6741 24.2798 29.0084 23.619C29.8021 22.0502 31.4174 20.9762 33.281 20.9762C33.5781 20.9762 33.8689 21.0035 34.1511 21.0558ZM27.1525 32.4287C27.1609 32.4286 27.1692 32.4286 27.1776 32.4286H39.3843C40.8289 32.4286 42 33.6118 42 35.0714V35.9524C42 39.4259 38.7574 43 33.281 43C30.8781 43 28.9053 42.3119 27.4477 41.2462C26.4419 40.5108 25.6814 39.5955 25.1943 38.6024C24.7785 37.7546 24.5619 36.8501 24.5619 35.9524V35.0714C24.5619 33.6887 25.6129 32.5539 26.9519 32.4383C27.0181 32.4326 27.085 32.4293 27.1525 32.4287ZM14.5353 23.619H27.1138C26.8728 24.3079 26.7417 25.0492 26.7417 25.8214C26.7417 25.9694 26.7465 26.1163 26.756 26.2619H14.5353C13.813 26.2619 13.2275 25.6703 13.2275 24.9405C13.2275 24.2715 13.7195 23.7186 14.3579 23.6311L14.5353 23.619ZM14.5353 30.6667H21.5075C22.2298 30.6667 22.8154 31.2583 22.8154 31.9881C22.8154 32.6571 22.3233 33.21 21.685 33.2975L21.5075 33.3095H14.5353C13.813 33.3095 13.2275 32.7179 13.2275 31.9881C13.2275 31.3191 13.7195 30.7662 14.3579 30.6787L14.5353 30.6667ZM14.5353 16.5714H30.2265C30.9489 16.5714 31.5344 17.1631 31.5344 17.8929C31.5344 18.5618 31.0424 19.1147 30.404 19.2022L30.2265 19.2143H14.5353C13.813 19.2143 13.2275 18.6227 13.2275 17.8929C13.2275 17.2239 13.7195 16.671 14.3579 16.5835L14.5353 16.5714Z" fill="#1976D2"/>
</svg>
