<svg width="48" height="48" viewBox="0 0 48 48" fill="none" xmlns="http://www.w3.org/2000/svg">
<path d="M31.8551 7C33.9854 7 35.7123 8.71251 35.7123 10.825V37.175C35.7123 39.2875 33.9854 41 31.8551 41H13.8571C11.7269 41 10 39.2875 10 37.175V10.825C10 8.71251 11.7269 7 13.8571 7H31.8551ZM31.8551 9.55H13.8571C13.1471 9.55 12.5714 10.1208 12.5714 10.825V37.175C12.5714 37.8792 13.1471 38.45 13.8571 38.45H31.8551C32.5652 38.45 33.1409 37.8792 33.1409 37.175V10.825C33.1409 10.1208 32.5652 9.55 31.8551 9.55ZM37.4286 29.1033H38.7143C39.3652 29.1033 39.9031 29.583 39.9883 30.2053L40 30.3783V32.925C40 33.5705 39.5163 34.1039 38.8888 34.1884L38.7143 34.2H37.4286V29.1033H38.7143H37.4286ZM37.4286 22.3033H38.7143C39.3652 22.3033 39.9031 22.783 39.9883 23.4053L40 23.5783V26.125C40 26.7705 39.5163 27.3039 38.8888 27.3884L38.7143 27.4H37.4286V22.3033H38.7143H37.4286ZM37.4286 15.5033H38.7143C39.3652 15.5033 39.9031 15.983 39.9883 16.6053L40 16.7783V19.325C40 19.9705 39.5163 20.5039 38.8888 20.5884L38.7143 20.6H37.4286V15.5033H38.7143H37.4286ZM29.2837 12.1C29.9938 12.1 30.5694 12.6708 30.5694 13.375V17.6225C30.5694 18.3266 29.9938 18.8975 29.2837 18.8975H16.4286C15.7185 18.8975 15.1429 18.3266 15.1429 17.6225V13.375C15.1429 12.6708 15.7185 12.1 16.4286 12.1H29.2837ZM27.998 14.65H17.7143V16.3475H27.998V14.65Z" fill="#1976D2"/>
</svg>
