<svg width="48" height="48" viewBox="0 0 48 48" fill="none" xmlns="http://www.w3.org/2000/svg">
<path d="M22.1398 28.4258C22.1398 27.8746 22.2343 27.3456 22.4081 26.8539H11.5345C9.58246 26.8539 8 28.4365 8 30.3886V31.2966C8 32.6999 8.50061 34.0571 9.41181 35.1242C11.8735 38.0072 15.6236 39.4299 20.5679 39.4299C21.1928 39.4299 21.7986 39.4072 22.3851 39.3617C22.226 38.889 22.1398 38.3828 22.1398 37.8564V37.0163C21.635 37.0536 21.1111 37.0723 20.5679 37.0723C16.2642 37.0723 13.1744 35.9 11.2046 33.5932C10.6579 32.9529 10.3575 32.1386 10.3575 31.2966V30.3886C10.3575 29.7386 10.8845 29.2116 11.5345 29.2116H22.1398V28.4258Z" fill="#1976D2"/>
<path d="M20.5679 8C24.908 8 28.4263 11.5185 28.4263 15.8589C28.4263 20.1992 24.908 23.7178 20.5679 23.7178C16.2278 23.7178 12.7095 20.1992 12.7095 15.8589C12.7095 11.5185 16.2278 8 20.5679 8ZM20.5679 10.3577C17.5298 10.3577 15.067 12.8206 15.067 15.8589C15.067 18.8971 17.5298 21.3601 20.5679 21.3601C23.606 21.3601 26.0688 18.8971 26.0688 15.8589C26.0688 12.8206 23.606 10.3577 20.5679 10.3577Z" fill="#1976D2"/>
<path d="M23.7115 28.4258C23.7115 26.6897 25.1188 25.2822 26.8548 25.2822H37.8566C39.5927 25.2822 41 26.6897 41 28.4258V37.8564C41 39.5926 39.5927 41 37.8566 41H26.8548C25.1188 41 23.7115 39.5926 23.7115 37.8564V28.4258ZM27.6407 29.9976C27.2067 29.9976 26.8548 30.3494 26.8548 30.7835C26.8548 31.2175 27.2067 31.5693 27.6407 31.5693H37.0708C37.5048 31.5693 37.8566 31.2175 37.8566 30.7835C37.8566 30.3494 37.5048 29.9976 37.0708 29.9976H27.6407ZM27.6407 34.7129C27.2067 34.7129 26.8548 35.0648 26.8548 35.4988C26.8548 35.9328 27.2067 36.2847 27.6407 36.2847H37.0708C37.5048 36.2847 37.8566 35.9328 37.8566 35.4988C37.8566 35.0648 37.5048 34.7129 37.0708 34.7129H27.6407Z" fill="#1976D2"/>
</svg>
