<svg width="25" height="25" viewBox="0 0 25 25" fill="none" xmlns="http://www.w3.org/2000/svg">
<path d="M11.4023 15.7209C11.4023 15.3703 11.4625 15.0337 11.5731 14.7209H4.65464C3.41262 14.7209 2.40576 15.7277 2.40576 16.9698V17.5474C2.40576 18.4402 2.72428 19.3037 3.30404 19.9826C4.87035 21.8169 7.25636 22.722 10.4022 22.722C10.7998 22.722 11.1852 22.7076 11.5584 22.6786C11.4572 22.3779 11.4023 22.0558 11.4023 21.7209V21.1864C11.0812 21.2102 10.7478 21.222 10.4022 21.222C7.66392 21.222 5.69804 20.4762 4.44473 19.0085C4.09687 18.6012 3.90576 18.0831 3.90576 17.5474V16.9698C3.90576 16.5562 4.24105 16.2209 4.65464 16.2209H11.4023V15.7209Z" fill="#ADB1B5"/>
<path d="M10.4022 2.72559C13.1636 2.72559 15.4022 4.96416 15.4022 7.72559C15.4022 10.487 13.1636 12.7256 10.4022 12.7256C7.6408 12.7256 5.40222 10.487 5.40222 7.72559C5.40222 4.96416 7.6408 2.72559 10.4022 2.72559ZM10.4022 4.22559C8.46922 4.22559 6.90222 5.79259 6.90222 7.72559C6.90222 9.65858 8.46922 11.2256 10.4022 11.2256C12.3352 11.2256 13.9022 9.65858 13.9022 7.72559C13.9022 5.79259 12.3352 4.22559 10.4022 4.22559Z" fill="#ADB1B5"/>
<path d="M12.4023 15.7209C12.4023 14.6164 13.2978 13.7209 14.4023 13.7209H21.4023C22.5069 13.7209 23.4023 14.6164 23.4023 15.7209V21.7209C23.4023 22.8255 22.5069 23.7209 21.4023 23.7209H14.4023C13.2978 23.7209 12.4023 22.8255 12.4023 21.7209V15.7209ZM14.9023 16.7209C14.6262 16.7209 14.4023 16.9448 14.4023 17.2209C14.4023 17.4971 14.6262 17.7209 14.9023 17.7209H20.9023C21.1785 17.7209 21.4023 17.4971 21.4023 17.2209C21.4023 16.9448 21.1785 16.7209 20.9023 16.7209H14.9023ZM14.9023 19.7209C14.6262 19.7209 14.4023 19.9448 14.4023 20.2209C14.4023 20.4971 14.6262 20.7209 14.9023 20.7209H20.9023C21.1785 20.7209 21.4023 20.4971 21.4023 20.2209C21.4023 19.9448 21.1785 19.7209 20.9023 19.7209H14.9023Z" fill="#ADB1B5"/>
</svg>
