<svg width="25" height="25" viewBox="0 0 25 25" fill="none" xmlns="http://www.w3.org/2000/svg">
<path d="M4.40186 6.7207C4.40186 6.03015 4.71716 5.42735 5.17609 4.94095C5.63125 4.45855 6.25486 4.05815 6.96854 3.73822C8.39761 3.09761 10.3192 2.7207 12.4019 2.7207C14.4845 2.7207 16.4061 3.09761 17.8352 3.73822C18.5488 4.05815 19.1725 4.45855 19.6276 4.94095C20.0866 5.42735 20.4019 6.03015 20.4019 6.7207V12.9779C19.9555 12.6093 19.4501 12.3097 18.9019 12.0956V9.11312C18.5809 9.33352 18.2212 9.53012 17.8352 9.70318C16.4061 10.3438 14.4845 10.7207 12.4019 10.7207C10.3192 10.7207 8.39761 10.3438 6.96854 9.70318C6.58249 9.53012 6.22279 9.33352 5.90186 9.11312V18.7207C5.90186 18.9276 5.99229 19.1798 6.2671 19.471C6.54568 19.7663 6.98381 20.0662 7.58212 20.3344C8.77704 20.8701 10.4804 21.2207 12.4019 21.2207C12.6415 21.2207 12.8777 21.2153 13.11 21.2047C13.7128 21.7786 14.4457 22.2171 15.2599 22.4714C14.3691 22.6334 13.4041 22.7207 12.4019 22.7207C10.3192 22.7207 8.39761 22.3438 6.96854 21.7032C6.25486 21.3833 5.63125 20.9829 5.17609 20.5005C4.71716 20.0141 4.40186 19.4113 4.40186 18.7207V6.7207ZM5.90186 6.7207C5.90186 6.92761 5.99229 7.17979 6.2671 7.47104C6.54568 7.76629 6.98381 8.06621 7.58212 8.33442C8.77704 8.87007 10.4804 9.2207 12.4019 9.2207C14.3233 9.2207 16.0267 8.87007 17.2216 8.33442C17.8199 8.06621 18.258 7.76629 18.5366 7.47104C18.8114 7.17979 18.9019 6.92761 18.9019 6.7207C18.9019 6.51379 18.8114 6.26162 18.5366 5.97036C18.258 5.67512 17.8199 5.3752 17.2216 5.10699C16.0267 4.57134 14.3233 4.2207 12.4019 4.2207C10.4804 4.2207 8.77704 4.57134 7.58212 5.10699C6.98381 5.3752 6.54568 5.67512 6.2671 5.97036C5.99229 6.26162 5.90186 6.51379 5.90186 6.7207ZM16.9019 21.7207C17.8737 21.7207 18.7736 21.4126 19.5093 20.8888L22.1215 23.501C22.4144 23.7939 22.8893 23.7939 23.1822 23.501C23.4751 23.2081 23.4751 22.7333 23.1822 22.4404L20.5699 19.8281C21.0938 19.0925 21.4019 18.1926 21.4019 17.2207C21.4019 14.7354 19.3871 12.7207 16.9019 12.7207C14.4166 12.7207 12.4019 14.7354 12.4019 17.2207C12.4019 19.706 14.4166 21.7207 16.9019 21.7207ZM16.9019 20.2207C15.245 20.2207 13.9019 18.8776 13.9019 17.2207C13.9019 15.5638 15.245 14.2207 16.9019 14.2207C18.5587 14.2207 19.9019 15.5638 19.9019 17.2207C19.9019 18.8776 18.5587 20.2207 16.9019 20.2207Z" fill="#ADB1B5"/>
</svg>
