<svg width="25" height="25" viewBox="0 0 25 25" fill="none" xmlns="http://www.w3.org/2000/svg">
<path d="M5.40186 4.9707C5.40186 4.55649 5.06607 4.2207 4.65186 4.2207C4.23764 4.2207 3.90186 4.55649 3.90186 4.9707V19.4707C3.90186 20.4372 4.68536 21.2207 5.65186 21.2207H20.1519C20.5661 21.2207 20.9019 20.8849 20.9019 20.4707C20.9019 20.0565 20.5661 19.7207 20.1519 19.7207H5.65186C5.51378 19.7207 5.40186 19.6088 5.40186 19.4707V4.9707ZM14.4019 7.4707C14.4019 7.05649 14.7376 6.7207 15.1519 6.7207H20.1533C20.5675 6.7207 20.9033 7.05648 20.9033 7.47069L20.9034 12.4757C20.9034 12.8899 20.5676 13.2257 20.1534 13.2257C19.7392 13.2257 19.4034 12.8899 19.4034 12.4757L19.4033 9.27987L14.1822 14.501C13.8893 14.7939 13.4144 14.7939 13.1215 14.501L11.1519 12.5314L7.93219 15.751C7.63929 16.0439 7.16442 16.0439 6.87153 15.751C6.57863 15.4581 6.57863 14.9833 6.87153 14.6904L10.6215 10.9404C10.9144 10.6475 11.3893 10.6475 11.6822 10.9404L13.6519 12.91L18.3412 8.2207H15.1519C14.7376 8.2207 14.4019 7.88492 14.4019 7.4707Z" fill="#ADB1B5"/>
</svg>
