<svg width="25" height="25" viewBox="0 0 25 25" fill="none" xmlns="http://www.w3.org/2000/svg">
<path d="M17.1507 2.7207C18.3933 2.7207 19.4007 3.72806 19.4007 4.9707V20.4707C19.4007 21.7133 18.3933 22.7207 17.1507 22.7207H6.65186C5.40921 22.7207 4.40186 21.7133 4.40186 20.4707V4.9707C4.40186 3.72806 5.40921 2.7207 6.65186 2.7207H17.1507ZM17.1507 4.2207H6.65186C6.23764 4.2207 5.90186 4.55649 5.90186 4.9707V20.4707C5.90186 20.8849 6.23764 21.2207 6.65186 21.2207H17.1507C17.5649 21.2207 17.9007 20.8849 17.9007 20.4707V4.9707C17.9007 4.55649 17.5649 4.2207 17.1507 4.2207ZM20.4019 15.7226H21.1519C21.5316 15.7226 21.8453 16.0048 21.895 16.3709L21.9019 16.4726V17.9707C21.9019 18.3504 21.6197 18.6642 21.2536 18.7139L21.1519 18.7207H20.4019V15.7226H21.1519H20.4019ZM20.4019 11.7226H21.1519C21.5316 11.7226 21.8453 12.0048 21.895 12.3709L21.9019 12.4726V13.9707C21.9019 14.3504 21.6197 14.6642 21.2536 14.7139L21.1519 14.7207H20.4019V11.7226H21.1519H20.4019ZM20.4019 7.72264H21.1519C21.5316 7.72264 21.8453 8.0048 21.895 8.37087L21.9019 8.47264V9.9707C21.9019 10.3504 21.6197 10.6642 21.2536 10.7139L21.1519 10.7207H20.4019V7.72264H21.1519H20.4019ZM15.6507 5.7207C16.0649 5.7207 16.4007 6.05649 16.4007 6.4707V8.96921C16.4007 9.38342 16.0649 9.71921 15.6507 9.71921H8.15186C7.73764 9.71921 7.40186 9.38342 7.40186 8.96921V6.4707C7.40186 6.05649 7.73764 5.7207 8.15186 5.7207H15.6507ZM14.9007 7.2207H8.90186V8.21921H14.9007V7.2207Z" fill="#ADB1B5"/>
</svg>
