<svg width="29" height="28" viewBox="0 0 29 28" fill="none" xmlns="http://www.w3.org/2000/svg">
<path d="M14.3037 9.5C11.8184 9.5 9.80371 11.5147 9.80371 14C9.80371 16.4853 11.8184 18.5 14.3037 18.5C15.6525 18.5 16.8627 17.9066 17.6875 16.9666C18.3824 16.1745 18.8037 15.1365 18.8037 14C18.8037 13.5401 18.7347 13.0962 18.6065 12.6783C18.0419 10.838 16.329 9.5 14.3037 9.5ZM11.3037 14C11.3037 12.3431 12.6469 11 14.3037 11C15.9606 11 17.3037 12.3431 17.3037 14C17.3037 15.6569 15.9606 17 14.3037 17C12.6469 17 11.3037 15.6569 11.3037 14ZM22.013 22.3947L20.2855 21.6364C19.7913 21.4197 19.2108 21.4514 18.7437 21.7219C18.2766 21.9923 17.9787 22.4692 17.9194 23.0065L17.7117 24.8855C17.6689 25.2729 17.3877 25.5917 17.0092 25.6819C15.23 26.106 13.3762 26.106 11.597 25.6819C11.2185 25.5917 10.9373 25.2729 10.8945 24.8855L10.6871 23.0093C10.6262 22.473 10.3149 21.9976 9.84823 21.728C9.38155 21.4585 8.81488 21.4269 8.3223 21.6424L6.59442 22.4009C6.23652 22.558 5.81864 22.4718 5.55177 22.1858C4.30845 20.8536 3.38295 19.2561 2.84493 17.5136C2.72904 17.1383 2.86294 16.7307 3.17861 16.4976L4.7059 15.3703C5.14092 15.05 5.39785 14.5415 5.39785 14.0006C5.39785 13.4597 5.14092 12.9512 4.70533 12.6305L3.179 11.5051C2.86285 11.272 2.72884 10.8638 2.84513 10.4881C3.38409 8.74728 4.31008 7.15157 5.55342 5.82108C5.82056 5.53522 6.23863 5.44935 6.59647 5.60685L8.31667 6.36398C8.81164 6.58162 9.38067 6.54875 9.84988 6.27409C10.3171 6.00258 10.6281 5.52521 10.6881 4.98787L10.897 3.11011C10.9407 2.71797 11.2282 2.39697 11.6127 2.31131C12.4937 2.11498 13.3928 2.01065 14.3168 2C15.2184 2.01041 16.1165 2.11478 16.9965 2.31143C17.3807 2.39728 17.668 2.71817 17.7116 3.11011L17.9207 4.98931C18.0153 5.85214 18.7424 6.50566 19.6092 6.50657C19.8422 6.50694 20.0727 6.45832 20.288 6.36288L22.0085 5.60562C22.3663 5.44812 22.7844 5.53399 23.0515 5.81984C24.2949 7.15034 25.2209 8.74605 25.7598 10.4869C25.876 10.8623 25.7423 11.2702 25.4265 11.5034L23.9015 12.6297C23.4665 12.9499 23.2037 13.4585 23.2037 13.9994C23.2037 14.5402 23.4665 15.0488 23.9025 15.3697L25.4288 16.4964C25.7447 16.7296 25.8785 17.1376 25.7623 17.513C25.2236 19.2536 24.2981 20.8491 23.0555 22.1799C22.7886 22.4657 22.3708 22.5518 22.013 22.3947ZM16.5667 22.1965C16.8019 21.4684 17.2926 20.8288 17.9921 20.4238C18.8739 19.9132 19.9573 19.8546 20.8878 20.2626L22.2318 20.8526C23.0947 19.8537 23.763 18.7013 24.2018 17.4551L23.0132 16.5777L23.0123 16.577C22.2017 15.9799 21.7037 15.0276 21.7037 13.9994C21.7037 12.9718 22.2011 12.0195 23.011 11.4227L23.0123 11.4217L24.1994 10.545C23.7604 9.29874 23.0918 8.1463 22.2285 7.14764L20.8959 7.73419L20.8936 7.73521C20.4881 7.91457 20.0509 8.00716 19.6076 8.00657C17.9752 8.00447 16.6083 6.77425 16.4298 5.15459L16.4296 5.15285L16.2672 3.69298C15.6239 3.57322 14.9714 3.50866 14.3167 3.50011C13.6426 3.50885 12.9858 3.57361 12.3414 3.69322L12.1788 5.15446C12.0662 6.16266 11.483 7.05902 10.6056 7.5698C9.72308 8.08554 8.64824 8.14837 7.7124 7.73688L6.37644 7.14887C5.5132 8.14745 4.84463 9.29977 4.40567 10.5459L5.59552 11.4232C6.41486 12.0268 6.89785 12.9836 6.89785 14.0006C6.89785 15.0172 6.41513 15.9742 5.59608 16.5776L4.40532 17.4565C4.84373 18.7044 5.51221 19.8584 6.37576 20.8587L7.72113 20.2681C8.65116 19.8613 9.71944 19.9214 10.5984 20.4291C11.4777 20.9369 12.063 21.8319 12.1776 22.84L12.1781 22.8445L12.3399 24.3087C13.6363 24.5638 14.9699 24.5638 16.2663 24.3087L16.4284 22.8417C16.4528 22.6217 16.4992 22.4054 16.5667 22.1965Z" fill="#ADB1B5"/>
</svg>
