<svg width="25" height="25" viewBox="0 0 25 25" fill="none" xmlns="http://www.w3.org/2000/svg">
<path d="M11.8106 11.6668C13.533 13.3892 13.7132 16.0698 12.3512 17.9927L12.2099 18.1824L16.4272 22.4007L16.5021 22.4875C16.7267 22.7902 16.7017 23.2197 16.4272 23.4942C16.1527 23.7687 15.7231 23.7937 15.4204 23.5691L15.3337 23.4942L11.0773 19.2378C9.16179 20.5293 6.53933 20.3277 4.84458 18.6329C2.92095 16.7093 2.92095 13.5905 4.84458 11.6668C6.7682 9.74321 9.88702 9.74321 11.8106 11.6668ZM13.5308 2.7207C14.1273 2.7207 14.6994 2.95759 15.1213 3.3793L17.9332 6.1897L20.7409 9.00157C21.1621 9.42343 21.3987 9.99521 21.3987 10.5914V20.4707C21.3987 21.7133 20.3913 22.7207 19.1487 22.7207L17.6394 22.7213C17.6019 22.4283 17.491 22.1421 17.3052 21.8916L17.1842 21.7473L16.6574 21.2197L19.1487 21.2207C19.5629 21.2207 19.8987 20.8849 19.8987 20.4707L19.8979 10.7237L15.6519 10.7246C14.461 10.7246 13.4862 9.79943 13.407 8.62864L13.4019 8.47459V4.2207H7.65186C7.23764 4.2207 6.90186 4.55649 6.90186 4.9707L6.90152 9.39187C6.38265 9.51498 5.87715 9.70888 5.40042 9.97358L5.40186 4.9707C5.40186 3.72806 6.40921 2.7207 7.65186 2.7207H13.5308ZM5.93808 12.7603C4.61838 14.08 4.61838 16.2197 5.93808 17.5394C7.25778 18.8591 9.39744 18.8591 10.7171 17.5394C12.0368 16.2197 12.0368 14.08 10.7171 12.7603C9.39744 11.4406 7.25778 11.4406 5.93808 12.7603ZM14.9019 5.2807V8.47459C14.9019 8.85429 15.184 9.16808 15.5501 9.21775L15.6519 9.22459L18.8429 9.2237L14.9019 5.2807Z" fill="#ADB1B5"/>
</svg>
