<svg width="25" height="25" viewBox="0 0 25 25" fill="none" xmlns="http://www.w3.org/2000/svg">
<path d="M6.15345 22.7253C4.91084 22.7251 3.90348 21.718 3.90316 20.4754L3.90186 6.4709C3.90153 5.22821 4.90894 4.22056 6.15179 4.22056L6.89923 4.2197L6.8998 3.4707C6.8998 3.09101 7.18199 2.77721 7.54811 2.72755L7.64989 2.7207C8.02963 2.7207 8.34347 3.00286 8.39314 3.36893L8.39998 3.4707L8.39942 4.2197H11.4018L11.4023 3.4707C11.4023 3.09101 11.6845 2.77721 12.0506 2.72755L12.1524 2.7207C12.5321 2.7207 12.846 3.00286 12.8956 3.36893L12.9025 3.4707L12.902 4.2197H15.9004L15.9009 3.4707C15.9009 3.09101 16.1831 2.77721 16.5492 2.72755L16.651 2.7207C17.0308 2.7207 17.3446 3.00286 17.3943 3.36893L17.4011 3.4707L17.4005 4.2197L18.1498 4.22056C19.3923 4.22099 20.3997 5.22804 20.4001 6.47061L20.4006 10.7975C19.9551 10.5162 19.4462 10.3262 18.9002 10.2536L18.8999 6.47097C18.8998 6.05666 18.5638 5.7208 18.1496 5.72063H6.14169C5.73216 5.72615 5.40204 6.0598 5.40204 6.47063L5.40335 20.4751C5.40346 20.8894 5.73937 21.2253 6.15358 21.2253L12.6708 21.2248C12.8703 21.766 13.176 22.2736 13.574 22.7253H6.15345ZM18.9003 11.2659C19.4866 11.3733 20.0079 11.6667 20.4008 12.0825C20.8662 12.5751 21.1516 13.2396 21.1516 13.9707C21.1516 14.7016 20.8664 15.3659 20.4013 15.8584C20.0084 16.2744 19.4871 16.5679 18.9007 16.6755C18.7387 16.7052 18.5718 16.7207 18.4012 16.7207C16.9665 16.7207 15.7884 15.6223 15.6621 14.2207C15.6547 14.1384 15.6509 14.055 15.6509 13.9707C15.6509 13.5206 15.759 13.0957 15.9508 12.7207C16.406 11.8303 17.3324 11.2207 18.4012 11.2207C18.5716 11.2207 18.7384 11.2362 18.9003 11.2659ZM14.8864 17.7208C14.8912 17.7207 14.896 17.7207 14.9008 17.7207H21.9017C22.7302 17.7207 23.4019 18.3923 23.4019 19.2207V19.7207C23.4019 21.6921 21.5421 23.7207 18.4012 23.7207C17.0231 23.7207 15.8916 23.3302 15.0557 22.7253C14.4788 22.3079 14.0427 21.7884 13.7633 21.2247C13.5248 20.7436 13.4006 20.2302 13.4006 19.7207V19.2207C13.4006 18.4359 14.0034 17.7919 14.7713 17.7262C14.8093 17.723 14.8477 17.7211 14.8864 17.7208ZM7.65007 12.7207H14.8642C14.726 13.1117 14.6508 13.5324 14.6508 13.9707C14.6508 14.0547 14.6535 14.1381 14.659 14.2207H7.65007C7.2358 14.2207 6.89998 13.8849 6.89998 13.4707C6.89998 13.091 7.18217 12.7772 7.54829 12.7275L7.65007 12.7207ZM7.65007 16.7207H11.6488C12.0631 16.7207 12.3989 17.0565 12.3989 17.4707C12.3989 17.8504 12.1167 18.1642 11.7506 18.2139L11.6488 18.2207H7.65007C7.2358 18.2207 6.89998 17.8849 6.89998 17.4707C6.89998 17.091 7.18217 16.7772 7.54829 16.7276L7.65007 16.7207ZM7.65007 8.7207H16.6494C17.0637 8.7207 17.3995 9.05649 17.3995 9.4707C17.3995 9.8504 17.1173 10.1642 16.7512 10.2139L16.6494 10.2207H7.65007C7.2358 10.2207 6.89998 9.88492 6.89998 9.4707C6.89998 9.09101 7.18217 8.77721 7.54829 8.72755L7.65007 8.7207Z" fill="#ADB1B5"/>
</svg>
