<svg width="29" height="29" viewBox="0 0 29 29" fill="none" xmlns="http://www.w3.org/2000/svg">
<path d="M12.0019 10.9707C12.0019 9.58999 13.0764 8.4707 14.4019 8.4707C15.7273 8.4707 16.8019 9.58999 16.8019 10.9707V18.4707C16.8019 19.8514 15.7273 20.9707 14.4019 20.9707C13.0764 20.9707 12.0019 19.8514 12.0019 18.4707V10.9707ZM14.4019 10.3457C14.0705 10.3457 13.8019 10.6255 13.8019 10.9707V18.4707C13.8019 18.8159 14.0705 19.0957 14.4019 19.0957C14.7332 19.0957 15.0019 18.8159 15.0019 18.4707V10.9707C15.0019 10.6255 14.7332 10.3457 14.4019 10.3457ZM6.00186 17.2207C6.00186 15.84 7.07637 14.7207 8.40186 14.7207C9.72734 14.7207 10.8019 15.84 10.8019 17.2207V18.4707C10.8019 19.8514 9.72734 20.9707 8.40186 20.9707C7.07637 20.9707 6.00186 19.8514 6.00186 18.4707V17.2207ZM9.00186 17.2207C9.00186 16.8755 8.73323 16.5957 8.40186 16.5957C8.07048 16.5957 7.80186 16.8755 7.80186 17.2207V18.4707C7.80186 18.8159 8.07049 19.0957 8.40186 19.0957C8.73323 19.0957 9.00186 18.8159 9.00186 18.4707V17.2207ZM20.4019 12.2207C19.0764 12.2207 18.0019 13.34 18.0019 14.7207V18.4707C18.0019 19.8514 19.0764 20.9707 20.4019 20.9707C21.7273 20.9707 22.8019 19.8514 22.8019 18.4707V14.7207C22.8019 13.34 21.7273 12.2207 20.4019 12.2207ZM21.0019 14.7207V18.4707C21.0019 18.8159 20.7332 19.0957 20.4019 19.0957C20.0705 19.0957 19.8019 18.8159 19.8019 18.4707V14.7207C19.8019 14.3755 20.0705 14.0957 20.4019 14.0957C20.7332 14.0957 21.0019 14.3755 21.0019 14.7207ZM2.40186 8.1582C2.40186 6.25972 3.87932 4.7207 5.70186 4.7207H23.1019C24.9244 4.7207 26.4019 6.25972 26.4019 8.1582V21.2832C26.4019 23.1817 24.9244 24.7207 23.1019 24.7207H5.70186C3.87932 24.7207 2.40186 23.1817 2.40186 21.2832V8.1582ZM5.70186 6.5957C4.87343 6.5957 4.20186 7.29526 4.20186 8.1582V21.2832C4.20186 22.1461 4.87343 22.8457 5.70186 22.8457H23.1019C23.9303 22.8457 24.6019 22.1461 24.6019 21.2832V8.1582C24.6019 7.29526 23.9303 6.5957 23.1019 6.5957H5.70186Z" fill="#ADB1B5"/>
</svg>
