<svg width="29" height="29" viewBox="0 0 29 29" fill="none" xmlns="http://www.w3.org/2000/svg">
<path d="M7.15186 3.7207C5.08079 3.7207 3.40186 5.39963 3.40186 7.4707V21.9707C3.40186 24.0418 5.08079 25.7207 7.15185 25.7207H21.6519C23.7229 25.7207 25.4019 24.0418 25.4019 21.9707V7.4707C25.4019 5.39964 23.7229 3.7207 21.6519 3.7207H7.15186ZM4.90186 7.4707C4.90186 6.22806 5.90921 5.2207 7.15186 5.2207H13.9019V10.2207H4.90186V7.4707ZM4.90186 11.7207H13.9019V24.2207H7.15185C5.90921 24.2207 4.90186 23.2133 4.90186 21.9707V11.7207ZM15.4019 24.2207V18.7207H23.9019V21.9707C23.9019 23.2133 22.8945 24.2207 21.6519 24.2207H15.4019ZM23.9019 17.2207H15.4019V5.2207H21.6519C22.8945 5.2207 23.9019 6.22806 23.9019 7.4707V17.2207Z" fill="#ADB1B5" stroke="#ADB1B5" stroke-width="0.5"/>
</svg>
