<svg width="29" height="29" viewBox="0 0 29 29" fill="none" xmlns="http://www.w3.org/2000/svg">
<path d="M10.1519 3.7207C9.73764 3.7207 9.40186 4.05649 9.40186 4.4707V8.7207H7.15186C5.08079 8.7207 3.40186 10.3996 3.40186 12.4707V20.9707C3.40186 23.0418 5.08079 24.7207 7.15185 24.7207H21.6519C23.7229 24.7207 25.4019 23.0418 25.4019 20.9707V12.4707C25.4019 10.3996 23.7229 8.7207 21.6519 8.7207H19.4019V4.4707C19.4019 4.05649 19.0661 3.7207 18.6519 3.7207H10.1519ZM17.9019 8.7207H10.9019V5.2207H17.9019V8.7207ZM4.90186 12.4707C4.90186 11.2281 5.90921 10.2207 7.15186 10.2207H21.6519C22.8945 10.2207 23.9019 11.2281 23.9019 12.4707V20.9707C23.9019 22.2133 22.8945 23.2207 21.6519 23.2207H7.15185C5.90921 23.2207 4.90186 22.2133 4.90186 20.9707V12.4707Z" fill="#ADB1B5"/>
</svg>
